<?xml version="1.0" standalone="no"?>
<!DOCTYPE svg PUBLIC "-//W3C//DTD SVG 20010904//EN"
 "http://www.w3.org/TR/2001/REC-SVG-20010904/DTD/svg10.dtd">
<svg version="1.0" xmlns="http://www.w3.org/2000/svg"
 width="198.000000pt" height="198.000000pt" viewBox="0 0 198.000000 198.000000"
 preserveAspectRatio="xMidYMid meet">

<g transform="translate(0.000000,198.000000) scale(0.100000,-0.100000)"
fill="#000000" stroke="none">
<path d="M0 990 l0 -990 990 0 990 0 0 990 0 990 -990 0 -990 0 0 -990z m1010
377 c0 -5 12 -7 28 -3 27 5 27 5 3 -6 -20 -10 -25 -9 -37 7 -15 20 -16 19 -30
-7 -8 -15 -12 -15 -34 -2 l-25 14 27 -6 c23 -5 28 -2 34 22 7 26 8 26 20 9 8
-11 14 -23 14 -28z m-83 -49 c-3 -7 -5 -2 -5 12 0 14 2 19 5 13 2 -7 2 -19 0
-25z m130 0 c-3 -7 -5 -2 -5 12 0 14 2 19 5 13 2 -7 2 -19 0 -25z m-349 5
c-71 -2 -185 -2 -255 0 -71 1 -13 3 127 3 140 0 198 -2 128 -3z m820 0 c-71
-2 -185 -2 -255 0 -71 1 -13 3 127 3 140 0 198 -2 128 -3z m-505 -30 c-18 -2
-48 -2 -65 0 -18 2 -4 4 32 4 36 0 50 -2 33 -4z m-495 -208 c22 -49 63 -139
91 -200 29 -60 62 -132 75 -159 l23 -50 27 60 c15 32 66 145 113 249 84 187
103 224 103 195 0 -39 68 -559 74 -569 4 -6 21 -15 39 -20 25 -7 9 -9 -68 -9
-55 0 -91 2 -80 5 11 3 24 9 29 13 8 8 -20 376 -32 417 -6 18 -27 -23 -99
-185 -51 -114 -97 -220 -103 -237 -14 -37 -5 -53 -127 213 -52 114 -98 210
-102 215 -4 4 -13 -64 -20 -150 -7 -87 -15 -184 -18 -215 -5 -54 -4 -58 18
-67 18 -7 3 -10 -61 -9 -70 0 -79 1 -52 9 19 6 36 19 41 32 4 12 20 130 35
262 32 283 36 309 46 298 4 -4 26 -48 48 -98z m1121 50 c-1 -27 -4 -41 -6 -30
-10 40 -22 45 -119 45 l-94 0 0 -263 c0 -239 2 -265 18 -279 9 -9 26 -18 37
-21 11 -2 -25 -5 -80 -5 -55 0 -91 3 -80 5 45 11 45 12 45 294 l0 269 -90 0
c-90 0 -90 0 -109 -30 l-18 -30 -2 47 -1 48 250 0 250 0 -1 -50z"/>
</g>
</svg>
